<svg width="20" height="20" viewBox="0 0 20 20" fill="none" xmlns="http://www.w3.org/2000/svg">
<g id="ph:check-bold">
<path id="Vector" d="M18.1636 6.28829L8.16361 16.2883C8.07652 16.3757 7.97302 16.445 7.85907 16.4924C7.74511 16.5397 7.62294 16.564 7.49955 16.564C7.37616 16.564 7.25399 16.5397 7.14003 16.4924C7.02608 16.445 6.92259 16.3757 6.83549 16.2883L2.46049 11.9133C2.37328 11.8261 2.30411 11.7226 2.25691 11.6086C2.20972 11.4947 2.18542 11.3726 2.18542 11.2492C2.18542 11.1259 2.20972 11.0038 2.25691 10.8898C2.30411 10.7759 2.37328 10.6724 2.46049 10.5852C2.54769 10.498 2.65122 10.4288 2.76516 10.3816C2.8791 10.3344 3.00122 10.3101 3.12455 10.3101C3.24788 10.3101 3.37 10.3344 3.48394 10.3816C3.59788 10.4288 3.70141 10.498 3.78861 10.5852L7.50033 14.2969L16.837 4.96172C17.0132 4.7856 17.252 4.68666 17.5011 4.68666C17.7502 4.68666 17.9891 4.7856 18.1652 4.96172C18.3413 5.13784 18.4402 5.37672 18.4402 5.62579C18.4402 5.87486 18.3413 6.11373 18.1652 6.28985L18.1636 6.28829Z" fill="url(#paint0_linear_51_1415)"/>
</g>
<defs>
<linearGradient id="paint0_linear_51_1415" x1="19.0004" y1="1.99989" x2="3.50037" y2="14.9999" gradientUnits="userSpaceOnUse">
<stop stop-color="#25659A"/>
<stop offset="1" stop-color="#52A7ED"/>
</linearGradient>
</defs>
</svg>
