<svg width="20" height="20" viewBox="0 0 20 20" fill="none" xmlns="http://www.w3.org/2000/svg">
<g id="ph:question">
<path id="Vector" d="M10.9377 14.0625C10.9377 14.2479 10.8828 14.4292 10.7797 14.5833C10.6767 14.7375 10.5303 14.8577 10.359 14.9286C10.1877 14.9996 9.99921 15.0182 9.81735 14.982C9.63549 14.9458 9.46845 14.8565 9.33734 14.7254C9.20622 14.5943 9.11694 14.4273 9.08076 14.2454C9.04459 14.0635 9.06315 13.875 9.13411 13.7037C9.20507 13.5324 9.32523 13.386 9.4794 13.283C9.63357 13.18 9.81483 13.125 10.0002 13.125C10.2489 13.125 10.4873 13.2238 10.6632 13.3996C10.839 13.5754 10.9377 13.8139 10.9377 14.0625ZM10.0002 5.625C8.27681 5.625 6.87525 6.88672 6.87525 8.4375V8.75C6.87525 8.91576 6.9411 9.07473 7.05831 9.19194C7.17552 9.30915 7.33449 9.375 7.50025 9.375C7.66601 9.375 7.82498 9.30915 7.94219 9.19194C8.0594 9.07473 8.12525 8.91576 8.12525 8.75V8.4375C8.12525 7.57812 8.96665 6.875 10.0002 6.875C11.0338 6.875 11.8752 7.57812 11.8752 8.4375C11.8752 9.29688 11.0338 10 10.0002 10C9.83449 10 9.67552 10.0658 9.55831 10.1831C9.4411 10.3003 9.37525 10.4592 9.37525 10.625V11.25C9.37525 11.4158 9.4411 11.5747 9.55831 11.6919C9.67552 11.8092 9.83449 11.875 10.0002 11.875C10.166 11.875 10.325 11.8092 10.4422 11.6919C10.5594 11.5747 10.6252 11.4158 10.6252 11.25V11.1938C12.0502 10.932 13.1252 9.79531 13.1252 8.4375C13.1252 6.88672 11.7237 5.625 10.0002 5.625ZM18.1252 10C18.1252 11.607 17.6487 13.1779 16.7559 14.514C15.8632 15.8502 14.5942 16.8916 13.1096 17.5065C11.6249 18.1215 9.99123 18.2824 8.41514 17.9689C6.83904 17.6554 5.39131 16.8815 4.25501 15.7452C3.1187 14.6089 2.34487 13.1612 2.03137 11.5851C1.71786 10.009 1.87876 8.37535 2.49373 6.8907C3.10869 5.40605 4.15009 4.1371 5.48624 3.24431C6.82239 2.35152 8.39327 1.875 10.0002 1.875C12.1544 1.87727 14.2197 2.73403 15.743 4.25727C17.2662 5.78051 18.123 7.84581 18.1252 10ZM16.8752 10C16.8752 8.64025 16.472 7.31104 15.7166 6.18045C14.9612 5.04987 13.8874 4.16868 12.6312 3.64833C11.375 3.12798 9.99262 2.99183 8.659 3.2571C7.32538 3.52237 6.10037 4.17716 5.13889 5.13864C4.1774 6.10013 3.52262 7.32513 3.25735 8.65875C2.99208 9.99237 3.12822 11.3747 3.64858 12.6309C4.16893 13.8872 5.05011 14.9609 6.1807 15.7164C7.31129 16.4718 8.6405 16.875 10.0002 16.875C11.823 16.8729 13.5705 16.1479 14.8593 14.8591C16.1482 13.5702 16.8732 11.8227 16.8752 10Z" fill="url(#paint0_linear_51_1418)"/>
</g>
<defs>
<linearGradient id="paint0_linear_51_1418" x1="18.6852" y1="-1.8009" x2="-0.503395" y2="9.95872" gradientUnits="userSpaceOnUse">
<stop stop-color="#25659A"/>
<stop offset="1" stop-color="#52A7ED"/>
</linearGradient>
</defs>
</svg>
